#!OML:ASF F:\VICON\USERDATA\INSTALL\Justin_Nancy\Justin_Nancy.ASF
:FULLY-SPECIFIED
:DEGREES
111
root -0.0961726 17.3769 13.1 4.51671 -0.49003 3.78816
lowerback 9.30782 -0.145185 -5.17482
upperback -0.0138794 -0.693017 1.14535
thorax -5.17029 -0.194989 4.21349
lowerneck -25.5593 -3.05275 -7.98546
upperneck 13.9383 -2.88186 7.66231
head 8.73907 -0.938985 3.5208
rclavicle -1.37161e-014 1.55052e-014
rhumerus -59.3666 8.74155 -97.4572
rradius 120.454
rwrist -19.2472
rhand -5.14016 23.1125
rfingers 7.12502
rthumb 20.6587 -5.80809
lclavicle -1.37161e-014 1.55052e-014
lhumerus -37.522 -9.78293 96.3992
lradius 119.747
lwrist 31.5491
lhand -22.0761 12.5701
lfingers 7.12502
lthumb 4.33532 42.5058
rfemur -39.9177 -3.34811 18.8897
rtibia 63.265
rfoot -6.55725 -5.05189
rtoes -16.7445
lfemur 2.20249 -2.68188 -27.6894
ltibia 34.9623
lfoot -0.452364 -10.577
ltoes -24.7764
112
root -0.101491 17.469 13.5337 4.79043 -1.60045 3.48368
lowerback 8.76447 -0.0310167 -4.94473
upperback -0.27209 -0.487382 1.26231
thorax -5.15904 -0.0928454 4.17359
lowerneck -25.2344 -2.95108 -7.99574
upperneck 14.1049 -2.76319 7.61227
head 8.73207 -0.896038 3.52387
rclavicle 7.05686e-015 -1.82882e-014
rhumerus -60.4796 8.37923 -97.4339
rradius 121.159
rwrist -19.1023
rhand -5.02694 22.9819
rfingers 7.12502
rthumb 20.7675 -5.92678
lclavicle 7.05686e-015 -1.82882e-014
lhumerus -38.1154 -9.71751 96.5683
lradius 119.909
lwrist 31.6329
lhand -21.5652 12.8342
lfingers 7.12502
lthumb 4.82865 42.7592
rfemur -39.7636 -1.92651 19.2787
rtibia 58.8866
rfoot -6.40305 -4.28967
rtoes -18.6896
lfemur 3.56953 -2.3227 -27.5161
ltibia 33.1376
lfoot 4.80064 -10.6119
ltoes -23.1158
113
root -0.0967467 17.5551 13.972 4.76489 -2.24517 3.6012
lowerback 8.61286 -0.0546963 -4.88462
upperback -0.464988 -0.508843 1.25925
thorax -5.27456 -0.0977297 4.13883
lowerneck -25.0532 -2.86411 -8.02312
upperneck 14.4283 -2.64919 7.53597
head 8.80275 -0.856886 3.52285
rclavicle 8.44835e-015 0
rhumerus -61.2327 8.23476 -97.3345
rradius 121.318
rwrist -19.0453
rhand -4.97402 23.1009
rfingers 7.12502
rthumb 20.8184 -5.80224
lclavicle 8.44835e-015 0
lhumerus -38.9061 -9.83191 96.6764
lradius 120.139
lwrist 31.7384
lhand -21.396 12.4592
lfingers 7.12502
lthumb 4.99202 42.3804
rfemur -39.0718 -1.22024 19.0714
rtibia 54.4186
rfoot -6.36259 -3.1603
rtoes -18.4914
lfemur 5.35603 -2.37563 -27.8408
ltibia 31.055
lfoot 10.7234 -9.7363
ltoes -20.9388
114
root -0.0961061 17.6369 14.413 4.51927 -2.08295 3.71465
lowerback 8.40368 -0.343312 -4.79186
upperback -0.305513 -0.865891 1.35717
thorax -4.94963 -0.288174 4.22839
lowerneck -25.2012 -2.73708 -8.22911
upperneck 14.6096 -2.40664 7.56631
head 8.87198 -0.749932 3.60688
rclavicle -5.76476e-015 -1.82882e-014
rhumerus -61.2863 8.51042 -97.045
rradius 121.084
rwrist -19.0183
rhand -5.25474 23.2558
rfingers 7.12502
rthumb 20.5486 -5.67664
lclavicle -5.76476e-015 -1.82882e-014
lhumerus -38.9257 -10.0615 96.7605
lradius 120.204
lwrist 31.737
lhand -21.5022 12.4146
lfingers 7.12502
lthumb 4.88944 42.3382
rfemur -37.9441 -1.24706 18.9084
rtibia 49.8784
rfoot -6.05541 -2.09242
rtoes -17.4299
lfemur 7.38877 -3.10419 -28.0119
ltibia 28.8871
lfoot 16.44 -8.6871
ltoes -17.5246
115
root -0.108526 17.7169 14.8733 4.48589 -1.59246 3.68142
lowerback 8.33487 -0.705139 -4.57843
upperback -0.716864 -1.32511 1.45731
thorax -5.29546 -0.501037 4.27416
lowerneck -24.6022 -2.56005 -8.34193
upperneck 15.0442 -2.18237 7.51
head 8.90305 -0.67076 3.64312
rclavicle 9.44227e-015 3.97569e-015
rhumerus -62.4443 8.38431 -96.977
rradius 121.24
rwrist -18.7201
rhand -5.5339 23.3026
rfingers 7.12502
rthumb 20.2804 -5.65858
lclavicle 9.44227e-015 3.97569e-015
lhumerus -39.8807 -10.3257 97.0287
lradius 120.326
lwrist 31.5482
lhand -21.7757 12.6562
lfingers 7.12502
lthumb 4.62537 42.5857
rfemur -36.8673 -1.15766 18.9352
rtibia 45.4266
rfoot -5.66626 -1.63051
rtoes -17.6778
lfemur 9.29589 -4.26141 -27.9108
ltibia 26.691
lfoot 21.3202 -7.75503
ltoes -13.6406
